<svg width="22" height="16" viewBox="0 0 22 16" fill="none" xmlns="http://www.w3.org/2000/svg">
<path d="M21.9877 6.12501C21.9797 5.67506 21.9447 5.10616 21.8835 4.41884C21.8219 3.73111 21.7339 3.11651 21.6194 2.57497C21.4885 1.96671 21.204 1.45416 20.7662 1.03749C20.3285 0.620736 19.8189 0.379149 19.2376 0.312382C17.4205 0.1042 14.6747 0 11 0C7.32521 0 4.5793 0.1042 2.76233 0.312382C2.18114 0.379105 1.67361 0.620736 1.23995 1.03749C0.806124 1.45403 0.523742 1.96658 0.392763 2.57497C0.270127 3.11668 0.177935 3.73125 0.116573 4.41884C0.0552982 5.10616 0.0204681 5.67484 0.012341 6.12501C0.00404202 6.575 0 7.19993 0 8C0 8.79998 0.00404201 9.42509 0.012384 9.87499C0.0205111 10.3252 0.0553412 10.8938 0.116616 11.5811C0.177978 12.2688 0.265999 12.8834 0.380594 13.425C0.511573 14.0335 0.795933 14.5459 1.2338 14.9624C1.67176 15.3791 2.18135 15.6207 2.76237 15.6874C4.57934 15.8958 7.32508 16 11 16C14.6751 16 17.4206 15.8958 19.2377 15.6874C19.8189 15.6208 20.3263 15.3791 20.7601 14.9624C21.1939 14.5459 21.4761 14.0332 21.6071 13.425C21.7298 12.8834 21.8219 12.2688 21.8835 11.5811C21.9447 10.8939 21.9794 10.325 21.9877 9.87499C21.9959 9.42509 22 8.79998 22 8C22 7.19993 21.9959 6.575 21.9877 6.12501ZM15.346 8.67502L9.06039 12.6749C8.94575 12.7582 8.80648 12.7998 8.64286 12.7998C8.52018 12.7998 8.39333 12.7664 8.26239 12.6997C7.99235 12.5499 7.85738 12.3165 7.85738 11.9999V4.00015C7.85738 3.68366 7.9924 3.45021 8.26239 3.30026C8.54073 3.15005 8.80665 3.15845 9.06039 3.32526L15.3461 7.32515C15.5915 7.46656 15.7142 7.69169 15.7142 8.00004C15.7142 8.30827 15.5915 8.53348 15.346 8.67502Z" fill="#222222"/>
</svg>
